<svg width="40" height="40" viewBox="0 0 40 40" fill="none" xmlns="http://www.w3.org/2000/svg">
<circle cx="20" cy="20" r="19.5" fill="white" stroke="#F0F0F0"/>
<path d="M11.6758 18.3676C11.6972 18.2641 11.7693 18.178 11.8674 18.139C14.5659 17.065 16.9575 17.9299 17.6461 18.2296L22.3289 14.25C22.1652 12.8138 22.9407 11.8317 22.9753 11.7889C23.0317 11.7194 23.1144 11.677 23.2035 11.672C23.2922 11.6701 23.3801 11.7006 23.443 11.7638L28.2438 16.5595C28.3074 16.6227 28.3407 16.7101 28.3354 16.8C28.3303 16.8893 28.2872 16.9726 28.217 17.0283C27.3437 17.7206 26.2189 17.7096 25.7855 17.6743L21.7819 22.3755C22.0551 23.0766 22.8897 25.6043 21.8785 28.1405C21.8395 28.2389 21.7536 28.3106 21.6497 28.3319C21.6286 28.3363 21.6072 28.3385 21.5861 28.3385C21.5034 28.3385 21.4231 28.3058 21.3636 28.2464L16.7781 23.6657L12.5073 27.932C12.4459 27.9933 12.3653 28.0242 12.2848 28.0242C12.2042 28.0242 12.1236 27.9933 12.0623 27.932C11.9392 27.8091 11.9392 27.6104 12.0623 27.4875L16.3331 23.2212L11.7611 18.6537C11.6865 18.5789 11.6544 18.4713 11.6758 18.3676ZM17.2303 23.2275L21.4552 27.4482C22.2222 24.9315 21.1427 22.4723 21.131 22.4465C21.0813 22.3355 21.0996 22.206 21.1782 22.1136L25.4144 17.1392C25.4745 17.0685 25.5633 17.0286 25.6549 17.0286C25.6709 17.0286 25.6873 17.0298 25.7033 17.0327C25.7147 17.0346 26.702 17.1811 27.5269 16.7324L23.2781 12.4881C23.088 12.8516 22.8403 13.513 22.9747 14.3267C22.9929 14.4355 22.9523 14.5458 22.8683 14.6172L17.9004 18.8395C17.8031 18.9219 17.665 18.9366 17.5526 18.8797C17.5284 18.8671 15.2306 17.718 12.5583 18.56L17.2303 23.2275Z" fill="#EBAD0E"/>
<path d="M21.5507 27.8417L12.1875 18.5072L14.7672 17.8984L17.6081 18.5072L22.5073 14.3907L22.7102 13.521L23.348 12.1562L27.8413 16.7373L25.7541 17.2882L21.3477 22.4192L21.9855 23.8107V26.0429L21.5507 27.8417Z" fill="#EBAD0E"/>
</svg>
