<svg width="25" height="25" viewBox="0 0 25 25" fill="none" xmlns="http://www.w3.org/2000/svg">
<path d="M23.809 1.1905C22.2208 -0.396833 19.6376 -0.396833 18.0493 1.1905L1.73167 17.5081C1.72398 17.5158 1.71946 17.5253 1.71267 17.5335C1.70317 17.5443 1.69502 17.5561 1.68643 17.5679C1.66244 17.6014 1.64389 17.6371 1.62986 17.676C1.62579 17.6878 1.61991 17.6982 1.61674 17.71C1.61538 17.7145 1.61267 17.719 1.61131 17.7235L0.0117647 24.443C0.00452489 24.4733 0.00271493 24.5041 0.00180995 24.5344C0.00180995 24.5403 0 24.5457 0 24.5516C0.000452489 24.6032 0.0117647 24.6534 0.0294118 24.7018C0.0334842 24.7131 0.038009 24.7231 0.0429864 24.7339C0.0651584 24.7824 0.0927602 24.829 0.131674 24.8679C0.174661 24.9109 0.225339 24.9439 0.28009 24.9665C0.334842 24.9891 0.393213 25.0005 0.451584 25.0005C0.486425 25.0005 0.521719 24.9964 0.556109 24.9882L7.27557 23.3887C7.28778 23.386 7.29864 23.3792 7.31041 23.3751C7.32579 23.3701 7.34027 23.3643 7.3552 23.3575C7.38778 23.3425 7.4181 23.324 7.44615 23.3018C7.45701 23.2932 7.46832 23.2869 7.47873 23.2774C7.48235 23.2738 7.48688 23.2719 7.4905 23.2683L23.8086 6.95023C25.3968 5.36199 25.3968 2.77828 23.809 1.1905ZM23.1692 1.83032C24.295 2.95656 24.3909 4.72489 23.4633 5.96471L19.0348 1.5362C20.2751 0.608597 22.0434 0.704525 23.1692 1.83032ZM20.9294 8.54977L16.4498 4.07014L17.0896 3.43032L21.5692 7.90996L20.9294 8.54977ZM2.2448 22.7548C2.06787 22.5778 1.7819 22.5778 1.60498 22.7548L1.26244 23.0973L2.4181 18.243L4.419 18.0208L4.16154 20.3385C4.15973 20.3557 4.16606 20.3715 4.16606 20.3882C4.16606 20.4054 4.15973 20.4208 4.16154 20.438C4.16335 20.4529 4.17104 20.4652 4.17421 20.4796C4.17964 20.5059 4.18733 20.5299 4.19683 20.5543C4.2086 20.5837 4.22262 20.6104 4.23982 20.6362C4.25385 20.657 4.26787 20.6756 4.28507 20.6937C4.30679 20.7167 4.33032 20.7362 4.35611 20.7543C4.37647 20.7683 4.39593 20.7815 4.41855 20.7923C4.44842 20.8063 4.47964 20.8145 4.51222 20.8222C4.52941 20.8262 4.54344 20.8357 4.56109 20.838C4.57737 20.8398 4.59366 20.8407 4.61041 20.8407H4.61086H4.61131H4.61176H4.61222C4.62851 20.8407 4.64525 20.8398 4.66154 20.838L6.97918 20.5805L6.75701 22.5814L1.90226 23.7371L2.2448 23.3946C2.42127 23.2181 2.42127 22.9317 2.2448 22.7548ZM7.92353 20.2756L18.0493 10.1493C18.2262 9.9724 18.2262 9.68643 18.0493 9.5095C17.8724 9.33258 17.5864 9.33258 17.4095 9.5095L7.28371 19.6357L5.12398 19.8756L5.3638 17.7158L15.4905 7.59005C15.6674 7.41312 15.6674 7.12715 15.4905 6.95023C15.3136 6.7733 15.0276 6.7733 14.8507 6.95023L4.72398 17.076L3.28371 17.2362L15.81 4.70996L20.2896 9.18959L7.76335 21.7158L7.92353 20.2756ZM22.209 7.27014L17.7294 2.7905L18.3697 2.15023L22.8493 6.62986L22.209 7.27014Z" fill="#081B35"/>
</svg>
