<svg width="24" height="24" viewBox="0 0 24 24" fill="none" xmlns="http://www.w3.org/2000/svg">
<path d="M12 24C18.6274 24 24 18.6274 24 12C24 5.37258 18.6274 0 12 0C5.37258 0 0 5.37258 0 12C0 18.6274 5.37258 24 12 24Z" fill="#F2C94C"/>
<path d="M17.7363 9.76562C17.3223 9.76562 16.9863 9.42963 16.9863 9.01562C16.9863 8.18913 16.3143 7.51562 15.4863 7.51562C14.6583 7.51562 13.9863 8.18913 13.9863 9.01562C13.9863 9.42963 13.6503 9.76562 13.2363 9.76562C12.8223 9.76562 12.4863 9.42963 12.4863 9.01562C12.4863 7.36112 13.8318 6.01562 15.4863 6.01562C17.1408 6.01562 18.4863 7.36112 18.4863 9.01562C18.4863 9.43112 18.1503 9.76562 17.7363 9.76562Z" fill="#081B35"/>
<path d="M8.73633 9.76562C8.32233 9.76562 7.98633 9.42963 7.98633 9.01562C7.98633 8.18913 7.31283 7.51562 6.48633 7.51562C5.65983 7.51562 4.98633 8.18913 4.98633 9.01562C4.98633 9.42963 4.65033 9.76562 4.23633 9.76562C3.82233 9.76562 3.48633 9.42963 3.48633 9.01562C3.48633 7.36112 4.83183 6.01562 6.48633 6.01562C8.14083 6.01562 9.48633 7.36112 9.48633 9.01562C9.48633 9.43112 9.15033 9.76562 8.73633 9.76562Z" fill="#081B35"/>
</svg>
